<?xml version="1.0" encoding="utf-8"?>
<!-- Generator: Adobe Illustrator 15.0.2, SVG Export Plug-In . SVG Version: 6.00 Build 0)  -->
<!DOCTYPE svg PUBLIC "-//W3C//DTD SVG 1.1//EN" "http://www.w3.org/Graphics/SVG/1.1/DTD/svg11.dtd">
<svg version="1.1" id="Layer_1" xmlns="http://www.w3.org/2000/svg" xmlns:xlink="http://www.w3.org/1999/xlink" x="0px" y="0px"
	 width="268.672px" height="96.466px" viewBox="0 0 268.672 96.466" enable-background="new 0 0 268.672 96.466"
	 xml:space="preserve">
<g>
	<path fill="#FFFFFF" d="M54.297,88.151c-6.868,1.821-17.293,3.037-31.521,1.458c-14.228-1.58-13.124-4.374-12.51-5.954
		c0,0,4.538-10.814,16.925-13.852c2.189-0.537,4.266-0.792,6.222-0.832l0.078,0.722c0,0-3.822,0-9.16,2.636
		s-14.498,12.586-8.633,14.3c5.865,1.713,14.168,2.175,14.168,2.175s-13.311-1.977-13.509-3.757
		c-0.198-1.779,4.481-15.354,19.967-14.959l0.082-1.008c7.553,0.704,12.964,4.525,15.561,6.92
		C55.523,79.281,61.166,86.328,54.297,88.151 M64.694,83.267c-2.155-0.892-5.203-1.504-6.584-1.753
		c-1.238-2.181-3.202-4.353-4.784-5.824c-2.805-2.612-8.664-6.787-16.847-7.52l0.175-2.168h-3.559l0.222,2.065
		c-2.082,0.047-4.289,0.324-6.614,0.899c-9.078,2.247-14.232,8.417-16.593,12.114c-1.676,0.2-5.58,0.773-8.086,1.988
		c-3.262,1.582-3.262,3.658,5.14,5.733c0,0-3.115-1.731,1.02-3.412c0.03,1.673,2.095,3.75,13.774,5.06
		c15.289,1.714,26.492,0.396,33.873-1.581c2.168-0.581,3.175-1.652,3.421-2.963c5.485,0.84,1.093,2.896,1.093,2.896
		C70.032,87.024,67.561,84.454,64.694,83.267"/>
	<path fill="#FFFFFF" d="M1.925,87.947c7.644,4.218,22.933,6.458,39.803,5.536c16.87-0.924,23.592-5.142,23.592-5.142
		C31.184,97.832,1.925,87.947,1.925,87.947"/>
	<path fill="#FFFFFF" d="M11.678,92.295c9.358,4.35,21.483,4.481,29.786,3.954c8.304-0.526,15.816-3.954,15.816-3.954
		C33.688,97.304,11.678,92.295,11.678,92.295"/>
	<path fill="#FFFFFF" d="M20.442,85.046c0.329,0.396,2.636,0.726,2.636,0.726c0.198-11.005,10.083-14.366,10.083-14.366
		C20.969,73.778,20.442,85.046,20.442,85.046"/>
	<path fill="#FFFFFF" d="M45.945,73.317c0,0,4.481,3.163,7.051,10.412c0,0,1.647,3.097-11.269,4.811c0,0,13.971-0.658,13.18-3.888
		C54.117,81.423,51.02,75.887,45.945,73.317"/>
	<path fill="#FFFFFF" d="M31.777,65.211h6.524C38.301,65.211,35.138,60.863,31.777,65.211"/>
	<path fill="#FFFFFF" d="M25.154,65.178c-5.832,2.867-7.018-3.954,0.296-8.402c2.224-1.352,4.86-1.918,7.492-1.854
		C31.895,59.108,29.087,63.246,25.154,65.178 M8.053,45.408c0,0,1.869-0.051,5.604-0.837C10.199,46.663,8.053,45.408,8.053,45.408
		 M12.947,25.876c-1.038-1.669-1.928-3.005-1.928-3.005C12.122,22.94,13.367,24.355,12.947,25.876 M24.363,21.388
		c-4.349,2.768-8.6,9.49-8.6,9.49c-0.496-1.117-1.407-2.7-2.3-4.165c0.37-0.762,0.497-1.636,0.224-2.557
		c-0.79-2.669-4.052-1.977-4.052-1.977c0.998,1.483,1.889,3.18,2.652,4.845c-0.25,0.272-0.57,0.538-0.972,0.789
		C8.152,29.79,4,26.924,4.495,22.278c0.494-4.646,6.82-6.425,6.82-6.425c-2.965-4.449-1.285-12.554,4.844-13.74
		c6.128-1.186,9.588,2.866,9.588,2.866C31.282-0.952,37.213,3.2,38.004,5.968c0.709,2.479-1.36,4.877-3.433,4.355
		c-0.561-2.79-0.323-4.948-0.323-4.948c-2.57,0.692-3.361,4.151-1.582,5.436c0.308,0.223,0.643,0.411,0.995,0.558
		c0.552,2.445,1.649,4.683,2.793,6.497C33.7,18.053,28.364,18.842,24.363,21.388 M33.376,9.675
		c-1.516-1.317-0.018-2.818-0.018-2.818C33.259,7.81,33.275,8.753,33.376,9.675 M35.148,52.839c0.21-2.806-0.428-5.537-1.889-7.826
		c-3.294-5.164-11.641-3.752-15.649-2.554c2.788-2.766,5.219-6.114,7.148-7.529c4.449-3.262,11.17-2.174,11.17-2.174
		c2.472-3.361,10.379-2.57,11.862-5.832c1.483-3.262-0.692-5.14-2.669-5.14c-1.977,0-3.558,2.174-3.558,2.174
		c0.148-1.412-1.157-2.825-3.032-5.457c2.515-0.262,4.875-0.793,5.602-2.55c1.186-2.866-1.186-4.448-2.966-4.448
		c-1.779,0-3.657,1.582-2.767,3.163c0.889,1.582,2.075,1.285,2.075,1.285c-0.395-0.197-1.186-0.494-1.285-1.878
		c-0.098-1.384,3.065-2.372,3.658,0.495c0.524,2.532-2.423,3.058-4.821,3.215c-0.477-0.692-0.983-1.461-1.506-2.326
		c-0.756-1.251-1.27-2.544-1.619-3.769c1.397,0.14,2.902-0.446,4.091-2.261c1.878-2.866,0.296-8.402-5.239-9.291
		c-5.536-0.89-8.897,2.866-8.897,2.866c-8.501-4.843-14.53,0-16.409,3.658c-1.878,3.657-0.197,8.006-0.197,8.006
		c-1.977,0.692-7.018,5.437-5.437,10.083c1.582,4.646,4.943,4.942,7.018,4.646c0.965-0.138,2.037-0.704,2.828-1.537
		c1.653,3.782,2.609,7.171,2.609,7.171c5.832-12.652,15.223-15.618,18.682-16.112c0.9-0.129,1.941-0.197,3.009-0.278
		c0.913,1.341,1.807,2.394,2.428,3.046c1.977,2.076,1.582,4.547,1.582,4.547c0.79-2.274,4.349-4.844,5.535-2.57
		c1.186,2.273-1.68,3.756-6.03,4.052c-1.383,0.095-2.446,0.4-3.253,0.771c0.378-1,0.545-2.171-0.371-2.748
		c-1.779-1.12-3.229-1.054-3.229-1.054s2.899,1.186,2.768,2.57c-0.096,1.003-0.987,2.42-1.47,3.125
		c-10.55-2.887-14.934,8.73-19.291,12.724c-3.614,1.024-10.443,1.614-10.443,1.614c3.818,3.346,7.433,2.018,10.653-0.641
		c0.971-0.236,2.033-0.514,3.186-0.841c7.315-2.076,12.949,0.296,14.136,5.832c0.253,1.183,0.297,2.467,0.156,3.781
		C20.224,53.402,18.14,62.448,18.333,64.19c0.198,1.779,2.867,6.128,9.984,0.594c3.526-2.743,5.667-6.214,6.487-9.714
		c5.353,0.726,10.282,3.949,11.207,8.329c1.483,7.019-4.942,12.06-4.942,12.06C52.64,68.805,48.218,53.407,35.148,52.839"/>
	<path fill="#FFFFFF" d="M27.065,24.024c0,0-2.768-2.175-4.349,3.493C22.716,27.518,24.956,24.419,27.065,24.024"/>
	<path fill="#FFFFFF" d="M37.84,21.388c-3.756-3.163-4.811,0.264-4.811,0.264C36.127,20.269,37.84,21.388,37.84,21.388"/>
	<path fill="#FFFFFF" d="M44.693,51.109c-4.829-2.105,3.256-2.871,7.53,0.432C50.056,52.295,47.514,52.338,44.693,51.109
		 M64.463,30.417c0,0,2.965-2.965,3.888-3.624c0,0-2.043-2.9-4.613-1.055c-2.57,1.845-4.415,4.415-4.415,4.415
		s1.252-7.446,1.779-8.105c0,0-2.57-1.121-3.954,0.922s-1.911,7.381-1.911,7.381s-0.593-1.845-2.57-2.636c0,0-2.174,2.438-4.942,2.9
		c0,0,0.264,4.547,4.151,3.558c0,0-0.461,5.733-2.767,5.272c-2.307-0.461,0.593-3.295-1.055-5.931
		c-1.647-2.636-3.822-1.779-3.822-1.779s0.33,1.252-0.659,4.349c-0.988,3.098-2.504,6.458,0.791,10.215c0,0-2.109-3.164-0.791-6.656
		c1.318-3.493,2.241-4.745,2.043-5.799c0,0,2.24,0.197,1.977,2.57c-0.264,2.372-1.252,5.865,2.24,4.942
		c3.493-0.922,3.295-8.303,2.57-9.423c0,0-2.108,2.174-3.36-0.659c0,0,3.097-0.923,4.085-1.977c0,0,2.439,1.911,1.714,5.535
		c0,0,1.12-2.043,1.252-4.086c0.132-2.042,0.923-8.105,3.295-7.38c0,0-0.527,2.24-0.527,3.69c0,1.45-1.318,7.249-2.241,8.831
		c0,0,7.315-11.599,9.951-8.831c0,0-4.811,4.415-7.645,9.951c0,0,6.788-8.897,9.754-6.063c0,0-2.834,1.186-5.338,5.272
		c-2.504,4.086-3.888,9.49-6.59,12.323c-0.934,0.98-2.049,1.857-3.321,2.492c-2.45-1.89-5.254-2.618-6.103-2.821
		c-1.647-0.396-8.764-0.593-4.942,3.229c3.223,3.223,9.351,1.946,11.193,1.468c3.46,4.48,4.01,14.273-6.119,19.025l0.725,0.33
		c0,0,8.765-3.229,9.292-12.257c0.198-3.401-0.959-5.857-2.568-7.62c1.476-0.834,4.696-3.344,6.917-10.106
		c2.966-9.028,8.369-10.676,9.094-11.071C70.921,31.208,70.328,27.253,64.463,30.417"/>
	<path fill="#FFFFFF" d="M42.136,76.25c-0.603,0.521-1.551,0.409-2.117-0.248c-0.566-0.657-0.536-1.611,0.067-2.131
		c0.342-0.295,0.795-0.386,1.226-0.291c-0.726-0.381-1.589-0.341-2.189,0.177c-0.812,0.699-0.834,2.003-0.05,2.913
		s2.077,1.081,2.889,0.381c0.456-0.392,0.663-0.977,0.617-1.573C42.521,75.773,42.374,76.045,42.136,76.25"/>
</g>
<g>
	<g>
		<path fill="#FFFFFF" d="M87.594,59.89c-0.675,1.35-2.25,4.185-5.985,4.185c-6.12,0-8.28-7.245-8.28-17.009
			c0-7.65,2.07-15.929,8.46-15.929c1.305,0,1.53-0.09,1.53-0.675l1.305-0.495l1.89,4.5l-1.44,0.585
			c-0.945-1.08-1.98-1.755-3.285-1.755c-3.33,0-6.075,4.95-6.075,14.129c0,8.279,1.71,14.489,5.895,14.489
			c2.25,0,3.78-1.89,4.41-3.33L87.594,59.89z"/>
		<path fill="#FFFFFF" d="M103.974,55.615c0,5.31-1.17,8.46-6.48,8.46c-5.084,0-6.209-3.15-6.209-8.46V35.141
			c0-1.305,0-1.575-1.71-1.755v-1.71h5.715v1.71c-1.755,0.18-1.755,0.45-1.755,1.755v20.655c0,4.05,0.81,6.119,4.05,6.119
			c3.33,0,4.14-2.069,4.14-6.119V35.141c0-1.305,0-1.575-1.755-1.755v-1.71h5.715v1.71c-1.71,0.18-1.71,0.45-1.71,1.755V55.615z"/>
		<path fill="#FFFFFF" d="M115.044,35.276c-1.485-1.305-2.07-1.98-2.925-1.98s-1.305,0.63-1.305,1.305
			c0,1.575,1.89,3.825,4.68,8.955c2.16,3.915,4.815,9.089,4.815,13.455c0,4.545-3.015,7.064-6.435,7.064
			c-1.215,0-2.61-0.495-3.465-1.035l-0.81,0.495h-1.17l-0.63-4.95l1.44-0.54c0.81,1.801,1.8,3.87,4.635,3.87
			c2.385,0,4.185-2.024,4.185-4.545c0-3.914-2.25-8.504-4.365-12.329c-3.105-5.85-5.13-8.46-5.13-10.709
			c0-2.025,1.215-3.195,3.15-3.195c0.36,0,0.675,0.045,1.035,0.09l0.81-0.585h1.35l1.62,4.095L115.044,35.276z"/>
		<path fill="#FFFFFF" d="M124.494,63.535v-1.71c1.845-0.18,1.845-0.45,1.845-1.755V33.656c-1.8,0-2.97,0-3.96,2.115l-1.44-0.495
			l1.485-3.87c1.665,0.18,3.375,0.27,5.04,0.27c1.71,0,3.375-0.135,5.04-0.27l1.485,3.87l-1.44,0.495
			c-0.99-2.115-2.16-2.115-3.96-2.115V60.07c0,1.305,0,1.575,1.845,1.755v1.71H124.494z"/>
		<path fill="#FFFFFF" d="M135.474,49.585c0-10.98,2.069-18.449,7.199-18.449c5.085,0,7.875,7.469,7.875,18.449
			c0,8.279-2.34,14.489-7.29,14.489C137.948,64.075,135.474,57.865,135.474,49.585z M143.258,61.915c3.24,0,4.905-5.31,4.905-12.329
			c0-9-2.025-16.29-5.535-16.29c-3.284,0-4.77,7.29-4.77,16.29C137.858,56.605,139.658,61.915,143.258,61.915z"/>
		<path fill="#FFFFFF" d="M153.518,63.535v-1.71c1.98-0.225,1.98-0.45,1.98-1.755V35.141c0-1.305,0-1.575-1.98-1.755v-1.71h4.41
			l5.49,4.725l5.489-4.725h4.41v1.71c-1.98,0.18-1.98,0.45-1.98,1.755V60.07c0,1.305,0,1.53,1.98,1.755v1.71h-6.075v-1.71
			c1.845-0.225,1.845-0.54,1.845-1.755V34.061l-5.669,5.04l-5.67-5.04V60.07c0,1.215,0,1.53,1.845,1.755v1.71H153.518z"/>
		<path fill="#FFFFFF" d="M185.197,63.535v-1.71c1.846-0.225,1.846-0.54,1.846-1.755V35.141c0-1.305,0-1.575-1.846-1.755v-1.71
			h5.805v1.71c-1.71,0.18-1.71,0.45-1.71,1.755v1.8h7.425v-1.8c0-1.305,0-1.575-1.71-1.755v-1.71h5.805v1.71
			c-1.845,0.18-1.845,0.45-1.845,1.755V60.07c0,1.215,0,1.53,1.845,1.755v1.71h-5.805v-1.71c1.71-0.225,1.71-0.45,1.71-1.755V38.921
			h-7.425V60.07c0,1.305,0,1.53,1.71,1.755v1.71H185.197z"/>
		<path fill="#FFFFFF" d="M203.783,49.585c0-10.98,2.069-18.449,7.199-18.449c5.085,0,7.875,7.469,7.875,18.449
			c0,8.279-2.34,14.489-7.29,14.489C206.258,64.075,203.783,57.865,203.783,49.585z M211.567,61.915c3.24,0,4.905-5.31,4.905-12.329
			c0-9-2.025-16.29-5.535-16.29c-3.284,0-4.77,7.29-4.77,16.29C206.168,56.605,207.968,61.915,211.567,61.915z"/>
		<path fill="#FFFFFF" d="M236.002,55.615c0,5.31-1.17,8.46-6.479,8.46c-5.085,0-6.21-3.15-6.21-8.46V35.141
			c0-1.305,0-1.575-1.71-1.755v-1.71h5.715v1.71c-1.755,0.18-1.755,0.45-1.755,1.755v20.655c0,4.05,0.81,6.119,4.05,6.119
			c3.33,0,4.14-2.069,4.14-6.119V35.141c0-1.305,0-1.575-1.755-1.755v-1.71h5.715v1.71c-1.71,0.18-1.71,0.45-1.71,1.755V55.615z"/>
		<path fill="#FFFFFF" d="M247.072,35.276c-1.484-1.305-2.069-1.98-2.925-1.98c-0.854,0-1.305,0.63-1.305,1.305
			c0,1.575,1.89,3.825,4.68,8.955c2.16,3.915,4.815,9.089,4.815,13.455c0,4.545-3.016,7.064-6.436,7.064
			c-1.215,0-2.609-0.495-3.465-1.035l-0.81,0.495h-1.17l-0.63-4.95l1.439-0.54c0.811,1.801,1.8,3.87,4.635,3.87
			c2.385,0,4.186-2.024,4.186-4.545c0-3.914-2.25-8.504-4.365-12.329c-3.104-5.85-5.13-8.46-5.13-10.709
			c0-2.025,1.215-3.195,3.15-3.195c0.359,0,0.675,0.045,1.034,0.09l0.811-0.585h1.35l1.62,4.095L247.072,35.276z"/>
		<path fill="#FFFFFF" d="M255.262,63.535v-1.71c2.025-0.225,2.025-0.45,2.025-1.755V35.141c0-1.305,0-1.575-2.025-1.755v-1.71
			h5.445c1.08,0,2.835,0,4.454-0.675l1.62,3.06l-1.35,0.765c-0.72-0.585-1.08-1.17-2.565-1.17h-3.329v3.87h4.229
			c1.485,0,1.62-0.495,1.665-1.26h1.35v4.5h-1.35c-0.135-0.675-0.315-1.26-1.575-1.26h-4.319v22.049h4.635
			c2.069,0,2.385-0.945,3.149-1.891l1.351,0.9l-1.62,3.51c-0.855-0.225-1.936-0.36-3.061-0.45c-1.079-0.09-2.159-0.09-2.97-0.09
			H255.262z"/>
	</g>
	<g>
		<path fill="#FFFFFF" d="M74.797,87.535v-0.912c0.984-0.12,0.984-0.24,0.984-0.937V72.389c0-0.696,0-0.84-0.984-0.936v-0.912h4.369
			c2.088,0,2.712,0.84,2.712,1.968c0,0.744-0.264,1.561-1.392,1.872c0,2.353,0.288,7.705,0.888,9.938
			c0.432,1.655,0.84,2.184,1.656,2.304v0.912h-1.824c-0.312-0.696-0.624-1.464-0.936-2.641c-0.768-2.88-0.984-8.04-0.984-10.44
			h-2.304v11.232c0,0.648,0,0.816,0.984,0.937v0.912H74.797z M79.166,73.397c0.96,0,1.44-0.216,1.44-0.911
			c0-0.625-0.648-0.889-1.44-0.889h-2.184v1.8H79.166z"/>
		<path fill="#FFFFFF" d="M96.71,80.094c0-5.856,1.104-9.841,3.84-9.841c2.712,0,4.2,3.984,4.2,9.841
			c0,4.416-1.248,7.729-3.888,7.729C98.03,87.823,96.71,84.51,96.71,80.094z M100.862,86.67c1.728,0,2.616-2.832,2.616-6.576
			c0-4.801-1.08-8.689-2.953-8.689c-1.752,0-2.544,3.889-2.544,8.689C97.982,83.838,98.942,86.67,100.862,86.67z"/>
		<path fill="#FFFFFF" d="M120.134,87.535v-0.912c0.984-0.096,0.984-0.24,0.984-0.937V71.597c-0.96,0-1.584,0-2.112,1.128
			l-0.768-0.264l0.792-2.064c0.888,0.097,1.8,0.145,2.688,0.145c0.912,0,1.8-0.072,2.688-0.145l0.792,2.064l-0.768,0.264
			c-0.528-1.128-1.152-1.128-2.112-1.128v14.089c0,0.696,0,0.841,0.984,0.937v0.912H120.134z"/>
		<path fill="#FFFFFF" d="M139.285,87.535v-0.912c0.984-0.12,0.984-0.24,0.984-0.937V72.389c0-0.696,0-0.84-0.984-0.936v-0.912
			h3.168v0.912c-0.984,0.096-0.984,0.239-0.984,0.936v13.297c0,0.648,0,0.816,0.984,0.937v0.912H139.285z"/>
		<path fill="#FFFFFF" d="M160.453,72.461c-0.792-0.696-1.104-1.057-1.56-1.057s-0.696,0.337-0.696,0.696
			c0,0.841,1.008,2.04,2.496,4.776c1.152,2.089,2.568,4.849,2.568,7.177c0,2.425-1.608,3.769-3.433,3.769
			c-0.647,0-1.392-0.264-1.848-0.552l-0.433,0.264h-0.624l-0.336-2.641l0.769-0.288c0.432,0.961,0.96,2.064,2.472,2.064
			c1.272,0,2.232-1.08,2.232-2.424c0-2.088-1.2-4.536-2.328-6.577c-1.656-3.12-2.736-4.512-2.736-5.712
			c0-1.08,0.648-1.704,1.681-1.704c0.191,0,0.359,0.023,0.552,0.048l0.432-0.313h0.721l0.863,2.185L160.453,72.461z"/>
		<path fill="#FFFFFF" d="M181.141,72.461c-0.792-0.696-1.104-1.057-1.56-1.057s-0.696,0.337-0.696,0.696
			c0,0.841,1.008,2.04,2.496,4.776c1.152,2.089,2.568,4.849,2.568,7.177c0,2.425-1.608,3.769-3.433,3.769
			c-0.647,0-1.392-0.264-1.848-0.552l-0.433,0.264h-0.624l-0.336-2.641l0.769-0.288c0.432,0.961,0.96,2.064,2.472,2.064
			c1.272,0,2.232-1.08,2.232-2.424c0-2.088-1.2-4.536-2.328-6.577c-1.656-3.12-2.736-4.512-2.736-5.712
			c0-1.08,0.648-1.704,1.681-1.704c0.191,0,0.359,0.023,0.552,0.048l0.432-0.313h0.721l0.863,2.185L181.141,72.461z"/>
		<path fill="#FFFFFF" d="M198.204,87.535v-0.912c1.08-0.12,1.08-0.24,1.08-0.937V72.389c0-0.696,0-0.84-1.08-0.936v-0.912h2.904
			c0.576,0,1.513,0,2.376-0.36l0.864,1.632l-0.72,0.408c-0.384-0.312-0.576-0.624-1.368-0.624h-1.776v2.064h2.257
			c0.792,0,0.863-0.265,0.888-0.672h0.72v2.399h-0.72c-0.072-0.359-0.168-0.672-0.84-0.672h-2.305v11.762h2.473
			c1.104,0,1.271-0.505,1.68-1.009l0.721,0.48l-0.864,1.872c-0.456-0.12-1.032-0.192-1.633-0.24
			c-0.575-0.048-1.151-0.048-1.584-0.048H198.204z"/>
		<path fill="#FFFFFF" d="M219.204,87.535v-0.912c0.984-0.12,0.984-0.24,0.984-0.937V72.389c0-0.696,0-0.84-0.984-0.936v-0.912
			h4.368c2.089,0,2.713,0.84,2.713,1.968c0,0.744-0.265,1.561-1.393,1.872c0,2.353,0.288,7.705,0.889,9.938
			c0.432,1.655,0.84,2.184,1.656,2.304v0.912h-1.824c-0.313-0.696-0.624-1.464-0.937-2.641c-0.768-2.88-0.984-8.04-0.984-10.44
			h-2.304v11.232c0,0.648,0,0.816,0.984,0.937v0.912H219.204z M223.572,73.397c0.961,0,1.44-0.216,1.44-0.911
			c0-0.625-0.647-0.889-1.44-0.889h-2.184v1.8H223.572z"/>
		<path fill="#FFFFFF" d="M241.692,87.535v-0.912c0.984-0.12,0.984-0.24,0.984-0.937V72.389c0-0.696,0-0.84-0.984-0.936v-0.912
			h3.168v0.912c-0.984,0.096-0.984,0.239-0.984,0.936v13.297c0,0.648,0,0.816,0.984,0.937v0.912H241.692z"/>
		<path fill="#FFFFFF" d="M259.452,87.535v-0.912c1.08-0.12,1.08-0.24,1.08-0.937V72.389c0-0.696,0-0.84-1.08-0.936v-0.912h2.904
			c0.576,0,1.513,0,2.376-0.36l0.864,1.632l-0.72,0.408c-0.384-0.312-0.576-0.624-1.368-0.624h-1.776v2.064h2.257
			c0.792,0,0.863-0.265,0.888-0.672h0.72v2.399h-0.72c-0.072-0.359-0.168-0.672-0.84-0.672h-2.305v11.762h2.473
			c1.104,0,1.271-0.505,1.68-1.009l0.721,0.48l-0.864,1.872c-0.456-0.12-1.032-0.192-1.633-0.24
			c-0.575-0.048-1.151-0.048-1.584-0.048H259.452z"/>
	</g>
</g>
</svg>
